<svg id="Capa_1" enable-background="new 0 0 511.999 511.999" height="512" viewBox="0 0 511.999 511.999" width="512" xmlns="http://www.w3.org/2000/svg"><g><g><path d="m448.597 283.861 38.745 30.247c-2.533 6.149-5.499 12.482-8.964 18.804-20.764 37.944-59.423 75.889-131.013 75.889-53.674-94.065-53.674-209.479 0-303.543 143.182 0 154.635 151.777 154.635 151.777h-44.169c-14.268 0-20.482 18.036-9.234 26.826z" fill="#5c90ae"/></g><g><path d="m316.094 105.26c-30.554 0-60.684 7.156-87.976 20.894l-84.007 42.287c-32.564 16.393-53.111 49.738-53.111 86.196v4.786c0 36.458 20.547 69.803 53.111 86.196l84.007 42.287c27.292 13.738 57.421 20.893 87.976 20.893h31.269c-53.675-94.061-53.675-209.478 0-303.539z" fill="#ffce62"/></g><g><circle cx="410.468" cy="195.261" fill="#5c90ae" r="23.578"/></g><g><circle cx="410.468" cy="195.261" fill="#eaf0f0" r="23.578"/></g><g><path d="m307.127 254.575h-25.923c-20.634 0-39.521 11.583-48.876 29.975l-13.559 26.658h45.581c23.617 0 42.764-19.141 42.772-42.757z" fill="#eaf0f0"/></g><g><path d="m347.354 105.258h-31.265c-30.55 0-60.678 7.156-87.97 20.894l-41.138 20.71c-13.207-.66-26.014-5.51-36.439-14.073l-16.91-13.879c28.807-16.228 99.294-53.891 122.862-60.137 34.513-9.159 70.725 7.188 87.007 38.962z" fill="#5c90ae"/></g><g><path d="m347.363 408.8h-32.799c-19.42 0-36.833 11.965-43.796 30.094l-6.46 16.821h36.14c25.911 0 46.915-21.005 46.915-46.915z" fill="#eaf0f0"/></g><g><path d="m105.34 310.05c3.03 4.92 6.5 9.56 10.38 13.87l-67.25 26.56c-3.45 1.36-6.95 2-10.37 2-14.87 0-28.1-12.02-28.1-28.16 0-5.8 1.79-11.45 5.12-16.18l20.51-29.18c9.57-13.61 9.57-31.77 0-45.38l-20.56-29.25c-3.3-4.69-5.07-10.28-5.07-16.02 0-19.79 20.06-33.27 38.38-25.8l67.45 27.51c-15.71 17.43-24.83 40.34-24.83 64.62v4.78c0 18.23 5.14 35.68 14.34 50.63z" fill="#5c90ae"/></g><g><path d="m511.972 256.282c-.124-1.637-3.273-40.55-24.823-79.936-19.707-36.017-58.796-78.762-133.631-80.991-18.444-36.43-59.395-56.919-99.586-46.249-25.835 6.847-100.936 47.417-125.208 61.09-6.022 3.394-6.781 12.057-1.436 16.442l16.907 13.877c4.49 3.688 9.427 6.808 14.661 9.308l-19.241 9.686c-9.856 4.962-18.686 11.288-26.329 18.674l-61.131-24.933c-24.496-9.988-52.155 8.645-52.155 35.06 0 7.838 2.384 15.368 6.889 21.771l20.562 29.252c7.123 10.131 7.123 23.745-.002 33.878l-20.506 29.172c-4.542 6.453-6.943 14.038-6.943 21.937 0 21.042 17.092 38.16 38.1 38.16 4.772 0 9.495-.907 14.044-2.699l60.961-24.077c11.489 11.155 25.208 18.191 39.325 25.297 4.933 2.481 10.944.498 13.429-4.437 2.482-4.934.497-10.945-4.437-13.429-13.802-6.946-27.153-13.712-37.8-25.316-14.992-19.423-22.622-38.414-22.622-63.179 0-32.369 18.706-62.717 47.607-77.266l84.007-42.287c25.767-12.971 54.633-19.826 83.479-19.826h14.576c-20.108 40.107-31.536 84.486-33.31 129.314h-16.157c-24.525 0-46.669 13.581-57.788 35.441l-13.56 26.657c-3.311 6.509 1.606 14.534 8.913 14.534h45.581c14.225 0 27.146-5.669 36.646-14.855 3.967 25.029 10.919 49.596 20.729 72.964 2.767 6.59 5.742 13.092 8.944 19.483h-14.576c-26.508 0-52.227-5.548-76.442-16.489-5.031-2.272-10.955-.038-13.23 4.996-2.273 5.032-.037 10.956 4.996 13.23 14.168 6.401 28.805 11.118 43.788 14.161-5.953 5.685-10.722 12.671-13.772 20.611l-6.461 16.82c-1.181 3.075-.772 6.534 1.093 9.249s4.948 4.337 8.242 4.337h36.141c28.043 0 51.397-20.392 56.055-47.123 72.889-3.261 111.203-45.343 130.645-80.873 3.43-6.258 6.605-12.92 9.44-19.802 1.71-4.149.445-8.93-3.093-11.691l-38.745-30.247c-3.706-2.902-1.63-8.943 3.081-8.943h44.171c5.711 0 10.404-5.012 9.972-10.753zm-467.168 84.895c-2.195.865-4.451 1.304-6.704 1.304-8.704 0-18.1-6.943-18.1-18.16 0-3.756 1.141-7.36 3.302-10.431l20.508-29.178c11.963-17.012 11.963-39.872.002-56.882l-20.563-29.255c-2.126-3.019-3.249-6.569-3.249-10.265 0-12.458 12.996-21.274 24.604-16.54l55.086 22.468c-25.111 36.466-25.174 88.8-.176 125.332zm106.543-220.665c33.406-18.321 88.413-46.959 107.712-52.074 27.034-7.174 55.8 3.998 71.362 26.82h-14.332c-31.948 0-63.922 7.594-92.467 21.962l-38.666 19.465c-10.238-1.02-20.121-5.098-28.07-11.626zm145.775 147.935c-.007 18.064-14.708 32.761-32.772 32.761h-29.275l6.167-12.124c7.689-15.117 23.002-24.509 39.962-24.509h15.92zm3.326 177.268h-21.587l1.242-3.235c5.439-14.163 19.289-23.68 34.461-23.68h1.529 19.894c-4.37 15.512-18.647 26.915-35.539 26.915zm157.383-198.68c-10.658 0-20.173 6.789-23.641 16.859-3.784 10.988.549 20.146 8.253 27.85l32.636 25.478c-1.726 3.749-3.556 7.392-5.474 10.891-24.76 45.247-63.905 68.977-116.41 70.6-24.022-44.153-36.086-93.72-36.069-143.908.366-48.547 12.855-96.819 36.069-139.457 52.282 1.615 91.32 25.158 116.099 70.039 13.198 23.906 18.907 48.165 21.243 61.649h-32.706z"/><path d="m410.468 161.683c-18.515 0-33.578 15.063-33.578 33.578 0 18.516 15.063 33.579 33.578 33.579s33.578-15.063 33.578-33.579c0-18.515-15.064-33.578-33.578-33.578zm0 47.157c-7.487 0-13.578-6.092-13.578-13.579s6.091-13.578 13.578-13.578 13.578 6.091 13.578 13.578-6.091 13.579-13.578 13.579z"/><path d="m205.729 368.169c-2.067-5.039-8.028-7.494-13.05-5.41-5.035 2.09-7.497 8.019-5.41 13.061 2.084 5.034 8.023 7.477 13.05 5.4 5.035-2.08 7.505-8.02 5.41-13.051z"/></g></g></svg>